<mxfile host="Electron" agent="Mozilla/5.0 (X11; Linux x86_64) AppleWebKit/537.36 (KHTML, like Gecko) draw.io/26.2.2 Chrome/134.0.6998.178 Electron/35.1.2 Safari/537.36" version="26.2.2">
  <diagram name="Flujo (solucion no escalable)" id="mTi4Z2WoaxjLDfUjPqwb">
    <mxGraphModel dx="2383" dy="2092" grid="1" gridSize="10" guides="1" tooltips="1" connect="1" arrows="1" fold="1" page="1" pageScale="1" pageWidth="827" pageHeight="1169" math="0" shadow="0">
      <root>
        <mxCell id="0" />
        <mxCell id="1" parent="0" />
        <mxCell id="U7VDwsYy5-kSZG4rv5OB-13" style="rounded=0;orthogonalLoop=1;jettySize=auto;html=1;entryX=0.25;entryY=1;entryDx=0;entryDy=0;" edge="1" parent="1" source="U7VDwsYy5-kSZG4rv5OB-1" target="U7VDwsYy5-kSZG4rv5OB-7">
          <mxGeometry relative="1" as="geometry" />
        </mxCell>
        <mxCell id="U7VDwsYy5-kSZG4rv5OB-16" value="ffmpeg -f x11grab -i :99 /dev/video1" style="edgeLabel;html=1;align=center;verticalAlign=middle;resizable=0;points=[];" vertex="1" connectable="0" parent="U7VDwsYy5-kSZG4rv5OB-13">
          <mxGeometry x="0.0198" y="-1" relative="1" as="geometry">
            <mxPoint as="offset" />
          </mxGeometry>
        </mxCell>
        <mxCell id="U7VDwsYy5-kSZG4rv5OB-37" style="edgeStyle=orthogonalEdgeStyle;rounded=0;orthogonalLoop=1;jettySize=auto;html=1;entryX=0.5;entryY=0;entryDx=0;entryDy=0;" edge="1" parent="1" source="U7VDwsYy5-kSZG4rv5OB-1" target="U7VDwsYy5-kSZG4rv5OB-36">
          <mxGeometry relative="1" as="geometry" />
        </mxCell>
        <mxCell id="U7VDwsYy5-kSZG4rv5OB-38" value="/run/user/1000/pipewire-0" style="edgeLabel;html=1;align=center;verticalAlign=middle;resizable=0;points=[];" vertex="1" connectable="0" parent="U7VDwsYy5-kSZG4rv5OB-37">
          <mxGeometry x="-0.1736" y="-3" relative="1" as="geometry">
            <mxPoint as="offset" />
          </mxGeometry>
        </mxCell>
        <mxCell id="U7VDwsYy5-kSZG4rv5OB-1" value="retroarch+ffmpeg" style="rounded=0;whiteSpace=wrap;html=1;fillColor=#dae8fc;strokeColor=#6c8ebf;" vertex="1" parent="1">
          <mxGeometry x="120" y="170" width="120" height="60" as="geometry" />
        </mxCell>
        <mxCell id="U7VDwsYy5-kSZG4rv5OB-15" style="rounded=0;orthogonalLoop=1;jettySize=auto;html=1;entryX=0.75;entryY=1;entryDx=0;entryDy=0;startArrow=classic;startFill=1;" edge="1" parent="1" source="U7VDwsYy5-kSZG4rv5OB-2" target="U7VDwsYy5-kSZG4rv5OB-7">
          <mxGeometry relative="1" as="geometry" />
        </mxCell>
        <mxCell id="U7VDwsYy5-kSZG4rv5OB-25" value="Text" style="edgeLabel;html=1;align=center;verticalAlign=middle;resizable=0;points=[];" vertex="1" connectable="0" parent="U7VDwsYy5-kSZG4rv5OB-15">
          <mxGeometry x="-0.0545" y="3" relative="1" as="geometry">
            <mxPoint as="offset" />
          </mxGeometry>
        </mxCell>
        <mxCell id="U7VDwsYy5-kSZG4rv5OB-26" value="videocap://0" style="edgeLabel;html=1;align=center;verticalAlign=middle;resizable=0;points=[];" vertex="1" connectable="0" parent="U7VDwsYy5-kSZG4rv5OB-15">
          <mxGeometry x="0.0054" y="1" relative="1" as="geometry">
            <mxPoint as="offset" />
          </mxGeometry>
        </mxCell>
        <mxCell id="U7VDwsYy5-kSZG4rv5OB-43" style="rounded=0;orthogonalLoop=1;jettySize=auto;html=1;exitX=0;exitY=0.5;exitDx=0;exitDy=0;entryX=1;entryY=0.5;entryDx=0;entryDy=0;" edge="1" parent="1" source="U7VDwsYy5-kSZG4rv5OB-2" target="U7VDwsYy5-kSZG4rv5OB-36">
          <mxGeometry relative="1" as="geometry" />
        </mxCell>
        <mxCell id="U7VDwsYy5-kSZG4rv5OB-44" value="blablabla" style="edgeLabel;html=1;align=center;verticalAlign=middle;resizable=0;points=[];" vertex="1" connectable="0" parent="U7VDwsYy5-kSZG4rv5OB-43">
          <mxGeometry x="0.5057" y="-2" relative="1" as="geometry">
            <mxPoint y="-1" as="offset" />
          </mxGeometry>
        </mxCell>
        <mxCell id="U7VDwsYy5-kSZG4rv5OB-2" value="webRTC server" style="rounded=0;whiteSpace=wrap;html=1;fillColor=#dae8fc;strokeColor=#6c8ebf;" vertex="1" parent="1">
          <mxGeometry x="490" y="170" width="120" height="60" as="geometry" />
        </mxCell>
        <mxCell id="U7VDwsYy5-kSZG4rv5OB-5" value="server-events" style="rounded=0;whiteSpace=wrap;html=1;fillColor=#dae8fc;strokeColor=#6c8ebf;" vertex="1" parent="1">
          <mxGeometry x="490" y="554.5" width="120" height="60" as="geometry" />
        </mxCell>
        <mxCell id="U7VDwsYy5-kSZG4rv5OB-9" style="rounded=0;orthogonalLoop=1;jettySize=auto;html=1;" edge="1" parent="1" source="U7VDwsYy5-kSZG4rv5OB-6" target="U7VDwsYy5-kSZG4rv5OB-5">
          <mxGeometry relative="1" as="geometry" />
        </mxCell>
        <mxCell id="U7VDwsYy5-kSZG4rv5OB-10" value="ws://localhost:8090" style="edgeLabel;html=1;align=center;verticalAlign=middle;resizable=0;points=[];" vertex="1" connectable="0" parent="U7VDwsYy5-kSZG4rv5OB-9">
          <mxGeometry x="-0.0581" y="1" relative="1" as="geometry">
            <mxPoint as="offset" />
          </mxGeometry>
        </mxCell>
        <mxCell id="U7VDwsYy5-kSZG4rv5OB-11" style="edgeStyle=orthogonalEdgeStyle;rounded=0;orthogonalLoop=1;jettySize=auto;html=1;" edge="1" parent="1" source="U7VDwsYy5-kSZG4rv5OB-6" target="U7VDwsYy5-kSZG4rv5OB-2">
          <mxGeometry relative="1" as="geometry" />
        </mxCell>
        <mxCell id="U7VDwsYy5-kSZG4rv5OB-12" value="localhost:8000/webrtcstreamer.html?video=videocap://0" style="edgeLabel;html=1;align=center;verticalAlign=middle;resizable=0;points=[];" vertex="1" connectable="0" parent="U7VDwsYy5-kSZG4rv5OB-11">
          <mxGeometry x="0.0476" y="1" relative="1" as="geometry">
            <mxPoint as="offset" />
          </mxGeometry>
        </mxCell>
        <mxCell id="U7VDwsYy5-kSZG4rv5OB-6" value="web-app" style="rounded=0;whiteSpace=wrap;html=1;fillColor=#dae8fc;strokeColor=#6c8ebf;" vertex="1" parent="1">
          <mxGeometry x="490" y="360" width="120" height="60" as="geometry" />
        </mxCell>
        <mxCell id="U7VDwsYy5-kSZG4rv5OB-7" value="virtual device video&lt;div&gt;/dev/video1&lt;/div&gt;" style="rounded=0;whiteSpace=wrap;html=1;verticalAlign=top;fillColor=#ffe6cc;strokeColor=#d79b00;" vertex="1" parent="1">
          <mxGeometry x="280" y="50" width="130" height="40" as="geometry" />
        </mxCell>
        <mxCell id="U7VDwsYy5-kSZG4rv5OB-19" style="rounded=0;orthogonalLoop=1;jettySize=auto;html=1;" edge="1" parent="1" source="U7VDwsYy5-kSZG4rv5OB-8" target="U7VDwsYy5-kSZG4rv5OB-1">
          <mxGeometry relative="1" as="geometry" />
        </mxCell>
        <mxCell id="U7VDwsYy5-kSZG4rv5OB-8" value="virtual device gamepad&lt;div&gt;/dev/input/event25&lt;/div&gt;" style="rounded=0;whiteSpace=wrap;html=1;fillColor=#ffe6cc;strokeColor=#d79b00;" vertex="1" parent="1">
          <mxGeometry x="-70" y="270" width="130" height="50" as="geometry" />
        </mxCell>
        <mxCell id="U7VDwsYy5-kSZG4rv5OB-23" style="edgeStyle=orthogonalEdgeStyle;rounded=0;orthogonalLoop=1;jettySize=auto;html=1;" edge="1" parent="1" source="U7VDwsYy5-kSZG4rv5OB-22" target="U7VDwsYy5-kSZG4rv5OB-6">
          <mxGeometry relative="1" as="geometry" />
        </mxCell>
        <mxCell id="U7VDwsYy5-kSZG4rv5OB-24" value="localhost:8001" style="edgeLabel;html=1;align=center;verticalAlign=middle;resizable=0;points=[];" vertex="1" connectable="0" parent="U7VDwsYy5-kSZG4rv5OB-23">
          <mxGeometry x="0.2068" y="-1" relative="1" as="geometry">
            <mxPoint x="26" y="1" as="offset" />
          </mxGeometry>
        </mxCell>
        <mxCell id="U7VDwsYy5-kSZG4rv5OB-22" value="User" style="sketch=0;outlineConnect=0;fontColor=#232F3E;gradientColor=none;fillColor=#232F3D;strokeColor=none;dashed=0;verticalLabelPosition=bottom;verticalAlign=top;align=center;html=1;fontSize=12;fontStyle=0;aspect=fixed;pointerEvents=1;shape=mxgraph.aws4.user;" vertex="1" parent="1">
          <mxGeometry x="800" y="351" width="78" height="78" as="geometry" />
        </mxCell>
        <mxCell id="U7VDwsYy5-kSZG4rv5OB-29" style="edgeStyle=orthogonalEdgeStyle;rounded=0;orthogonalLoop=1;jettySize=auto;html=1;" edge="1" parent="1" source="U7VDwsYy5-kSZG4rv5OB-28" target="U7VDwsYy5-kSZG4rv5OB-7">
          <mxGeometry relative="1" as="geometry" />
        </mxCell>
        <mxCell id="U7VDwsYy5-kSZG4rv5OB-30" value="Crear device virtual" style="edgeLabel;html=1;align=center;verticalAlign=middle;resizable=0;points=[];" vertex="1" connectable="0" parent="U7VDwsYy5-kSZG4rv5OB-29">
          <mxGeometry x="-0.1148" y="-2" relative="1" as="geometry">
            <mxPoint as="offset" />
          </mxGeometry>
        </mxCell>
        <mxCell id="U7VDwsYy5-kSZG4rv5OB-28" value="kernel module&amp;nbsp;&lt;div&gt;&lt;b&gt;v4l2loopback&lt;/b&gt;&lt;/div&gt;" style="rounded=0;whiteSpace=wrap;html=1;fillColor=#fff2cc;strokeColor=#d6b656;" vertex="1" parent="1">
          <mxGeometry x="270" y="-170" width="150" height="80" as="geometry" />
        </mxCell>
        <mxCell id="U7VDwsYy5-kSZG4rv5OB-32" style="edgeStyle=orthogonalEdgeStyle;rounded=0;orthogonalLoop=1;jettySize=auto;html=1;" edge="1" parent="1" source="U7VDwsYy5-kSZG4rv5OB-31" target="U7VDwsYy5-kSZG4rv5OB-8">
          <mxGeometry relative="1" as="geometry" />
        </mxCell>
        <mxCell id="U7VDwsYy5-kSZG4rv5OB-33" value="&amp;nbsp;Crear device input" style="edgeLabel;html=1;align=center;verticalAlign=middle;resizable=0;points=[];" vertex="1" connectable="0" parent="U7VDwsYy5-kSZG4rv5OB-32">
          <mxGeometry x="-0.3752" y="-2" relative="1" as="geometry">
            <mxPoint as="offset" />
          </mxGeometry>
        </mxCell>
        <mxCell id="U7VDwsYy5-kSZG4rv5OB-31" value="kernel module&amp;nbsp;&lt;div&gt;&lt;b&gt;uinput&lt;/b&gt;&lt;/div&gt;" style="rounded=0;whiteSpace=wrap;html=1;fillColor=#fff2cc;strokeColor=#d6b656;" vertex="1" parent="1">
          <mxGeometry x="-80" y="545" width="150" height="80" as="geometry" />
        </mxCell>
        <mxCell id="U7VDwsYy5-kSZG4rv5OB-34" style="edgeStyle=orthogonalEdgeStyle;rounded=0;orthogonalLoop=1;jettySize=auto;html=1;entryX=1;entryY=0.563;entryDx=0;entryDy=0;entryPerimeter=0;" edge="1" parent="1" source="U7VDwsYy5-kSZG4rv5OB-5" target="U7VDwsYy5-kSZG4rv5OB-31">
          <mxGeometry relative="1" as="geometry">
            <Array as="points">
              <mxPoint x="180" y="590" />
            </Array>
          </mxGeometry>
        </mxCell>
        <mxCell id="U7VDwsYy5-kSZG4rv5OB-35" value="Pide crear un input device virtual" style="edgeLabel;html=1;align=center;verticalAlign=middle;resizable=0;points=[];" vertex="1" connectable="0" parent="U7VDwsYy5-kSZG4rv5OB-34">
          <mxGeometry x="-0.4482" y="-2" relative="1" as="geometry">
            <mxPoint as="offset" />
          </mxGeometry>
        </mxCell>
        <mxCell id="U7VDwsYy5-kSZG4rv5OB-36" value="&lt;b&gt;pipewire hosts&lt;/b&gt;" style="rounded=0;whiteSpace=wrap;html=1;fillColor=#fff2cc;strokeColor=#d6b656;" vertex="1" parent="1">
          <mxGeometry x="105" y="365" width="150" height="50" as="geometry" />
        </mxCell>
        <mxCell id="U7VDwsYy5-kSZG4rv5OB-48" value="" style="group" vertex="1" connectable="0" parent="1">
          <mxGeometry x="720" y="512.5" width="140" height="30" as="geometry" />
        </mxCell>
        <mxCell id="U7VDwsYy5-kSZG4rv5OB-45" value="" style="rounded=0;whiteSpace=wrap;html=1;fillColor=#dae8fc;strokeColor=#6c8ebf;" vertex="1" parent="U7VDwsYy5-kSZG4rv5OB-48">
          <mxGeometry y="7.5" width="20" height="15" as="geometry" />
        </mxCell>
        <mxCell id="U7VDwsYy5-kSZG4rv5OB-47" value="Docker container" style="text;html=1;align=center;verticalAlign=middle;whiteSpace=wrap;rounded=0;" vertex="1" parent="U7VDwsYy5-kSZG4rv5OB-48">
          <mxGeometry x="10" width="130" height="30" as="geometry" />
        </mxCell>
        <mxCell id="U7VDwsYy5-kSZG4rv5OB-49" value="" style="group" vertex="1" connectable="0" parent="1">
          <mxGeometry x="720" y="540" width="160" height="30" as="geometry" />
        </mxCell>
        <mxCell id="U7VDwsYy5-kSZG4rv5OB-50" value="" style="rounded=0;whiteSpace=wrap;html=1;fillColor=#fff2cc;strokeColor=#d6b656;" vertex="1" parent="U7VDwsYy5-kSZG4rv5OB-49">
          <mxGeometry y="7.5" width="20" height="15" as="geometry" />
        </mxCell>
        <mxCell id="U7VDwsYy5-kSZG4rv5OB-51" value="&amp;nbsp; &amp;nbsp; Componentes del Hosts" style="text;html=1;align=center;verticalAlign=middle;whiteSpace=wrap;rounded=0;" vertex="1" parent="U7VDwsYy5-kSZG4rv5OB-49">
          <mxGeometry x="10" width="150" height="30" as="geometry" />
        </mxCell>
        <mxCell id="U7VDwsYy5-kSZG4rv5OB-52" value="" style="group" vertex="1" connectable="0" parent="1">
          <mxGeometry x="720" y="570" width="160" height="30" as="geometry" />
        </mxCell>
        <mxCell id="U7VDwsYy5-kSZG4rv5OB-54" value="&amp;nbsp; &amp;nbsp; Dispositivos Virtuales" style="text;html=1;align=center;verticalAlign=middle;whiteSpace=wrap;rounded=0;" vertex="1" parent="U7VDwsYy5-kSZG4rv5OB-52">
          <mxGeometry width="160" height="30" as="geometry" />
        </mxCell>
        <mxCell id="U7VDwsYy5-kSZG4rv5OB-53" value="" style="rounded=0;whiteSpace=wrap;html=1;fillColor=#ffe6cc;strokeColor=#d79b00;" vertex="1" parent="U7VDwsYy5-kSZG4rv5OB-52">
          <mxGeometry y="7.5" width="22.857142857142854" height="15" as="geometry" />
        </mxCell>
      </root>
    </mxGraphModel>
  </diagram>
</mxfile>
